<svg width="346" height="346" viewBox="0 0 346 346" fill="none" xmlns="http://www.w3.org/2000/svg">
<path d="M176.204 320.862C265.009 320.862 337 249.035 337 160.431C337 71.8274 265.009 0 176.204 0C87.3992 0 15.4085 71.8274 15.4085 160.431C15.4085 190.047 23.4518 217.789 37.4779 241.601C37.7737 242.103 37.8397 242.708 37.655 243.261L10.2309 325.317C9.71543 326.859 11.1582 328.339 12.7131 327.863L98.4984 301.605C99.0123 301.448 99.5675 301.504 100.041 301.759C122.711 313.946 148.648 320.862 176.204 320.862Z" fill="white"/>
<path d="M175.75 292.081C248.237 292.081 307 233.412 307 161.041C307 88.6689 248.237 30 175.75 30C103.262 30 44.499 88.6689 44.499 161.041C44.499 185.182 51.0376 207.798 62.4431 227.221C62.7295 227.709 62.8006 228.294 62.6345 228.834L43.0751 292.501C42.6105 294.013 44.0022 295.44 45.5255 295.014L112.195 276.37C112.697 276.23 113.233 276.291 113.692 276.537C132.17 286.455 153.301 292.081 175.75 292.081Z" fill="#57BA63"/>
<path d="M119.534 126.509V103.182H229.438V126.509H188.469V237H160.503V126.509H119.534Z" fill="white"/>
</svg>
