<svg width="346" height="346" viewBox="0 0 346 346" fill="none" xmlns="http://www.w3.org/2000/svg">
<rect width="346" height="346" rx="8" fill="#57BA63"/>
<path d="M175.345 287.039C240.324 287.039 293 234.424 293 169.519C293 104.615 240.324 52 175.345 52C110.365 52 57.6892 104.615 57.6892 169.519C57.6892 191.127 63.5272 211.372 73.7136 228.767C74.0078 229.27 74.0739 229.874 73.8896 230.426L54.2296 289.317C53.7147 290.859 55.1579 292.339 56.7127 291.862L118.27 272.999C118.785 272.841 119.34 272.898 119.815 273.152C136.355 282.013 155.262 287.039 175.345 287.039Z" fill="white"/>
<path d="M174.915 266.127C227.981 266.127 271 223.118 271 170.064C271 117.009 227.981 74 174.915 74C121.848 74 78.8295 117.009 78.8295 170.064C78.8295 187.677 83.5707 204.183 91.8467 218.376C92.1312 218.863 92.2025 219.448 92.0368 219.988L78.0737 265.5C77.6097 267.013 79.0019 268.439 80.525 268.013L128.178 254.668C128.68 254.528 129.217 254.59 129.676 254.835C143.158 262.042 158.559 266.127 174.915 266.127Z" fill="#57BA63"/>
<path d="M136.332 143.739V128.273H209.203V143.739H182.039V217H163.496V143.739H136.332Z" fill="white"/>
</svg>
